<svg width="18" height="18" viewBox="0 0 18 18" fill="none" xmlns="http://www.w3.org/2000/svg">
<path d="M1 7.73684V4.36842C1 3.92174 1.1873 3.49336 1.5207 3.1775C1.8541 2.86165 2.30628 2.68421 2.77778 2.68421H4.55556M1 7.73684V15.3158C1 15.7625 1.1873 16.1909 1.5207 16.5067C1.8541 16.8226 2.30628 17 2.77778 17H15.2222C15.6937 17 16.1459 16.8226 16.4793 16.5067C16.8127 16.1909 17 15.7625 17 15.3158V7.73684M1 7.73684H17M4.55556 2.68421V1M4.55556 2.68421V4.36842M17 7.73684V4.36842C17 3.92174 16.8127 3.49336 16.4793 3.1775C16.1459 2.86165 15.6937 2.68421 15.2222 2.68421H14.7778M11.6667 2.68421V1M11.6667 2.68421V4.36842M11.6667 2.68421H7.66667" stroke="#66666F" stroke-width="1.8" stroke-linecap="round" stroke-linejoin="round"/>
</svg>
