<svg width="20" height="20" viewBox="0 0 20 20" fill="none" xmlns="http://www.w3.org/2000/svg">
<path fill-rule="evenodd" clip-rule="evenodd" d="M17.4576 2.54192C15.8301 0.914354 13.623 0 11.3211 0C9.01911 0 6.81198 0.914354 5.1845 2.54192C3.55701 4.16949 2.6421 6.37696 2.6421 8.67868C2.6421 9.81839 2.86692 10.9469 3.30287 11.9999C3.64303 12.821 4.10635 13.5835 4.67621 14.2617L0.219931 18.7185C-0.0733102 19.0117 -0.0733102 19.487 0.219931 19.7801C0.513171 20.0733 0.988222 20.0733 1.28146 19.7801L5.73775 15.3233C6.41611 15.8931 7.17854 16.3567 7.99961 16.6968C9.05332 17.1329 10.1813 17.3574 11.3211 17.3574C12.4608 17.3574 13.5898 17.1329 14.6425 16.6968C15.6952 16.2606 16.6522 15.6213 17.4576 14.8154C18.264 14.0096 18.9033 13.0528 19.3392 11.9999C19.7752 10.9469 20 9.81839 20 8.67868C20 6.37696 19.0861 4.16949 17.4576 2.54192ZM11.3211 1.50138C13.2252 1.50138 15.0501 2.25757 16.3961 3.60357C17.742 4.94956 18.4986 6.77515 18.4986 8.67868C18.4986 9.62123 18.3129 10.5545 17.9522 11.4253C17.5915 12.2961 17.0627 13.0873 16.3961 13.7538C15.7304 14.4203 14.9387 14.949 14.0677 15.3097C13.1968 15.6703 12.2633 15.856 11.3211 15.856C10.3788 15.856 9.44529 15.6703 8.57436 15.3097C7.70344 14.949 6.91266 14.4203 6.24603 13.7538C5.5794 13.0873 5.05058 12.2961 4.6899 11.4253C4.32921 10.5545 4.14349 9.62123 4.14349 8.67868C4.14349 6.77515 4.90005 4.94956 6.24603 3.60357C7.592 2.25757 9.41792 1.50138 11.3211 1.50138Z" fill="#8A8A92"/>
</svg>
