<svg width="28" height="28" viewBox="0 0 28 28" fill="none" xmlns="http://www.w3.org/2000/svg">
<path d="M16.5276 7.90505V7.90234H17.2324L17.4899 7.95378C17.6616 7.98717 17.8175 8.03093 17.9575 8.08506C18.0976 8.1392 18.2331 8.20237 18.3641 8.27455C18.4951 8.34673 18.614 8.42028 18.7206 8.49517C18.8263 8.56917 18.9212 8.64767 19.0052 8.73068C19.0883 8.81459 19.218 8.83625 19.3942 8.79565C19.5704 8.75504 19.7601 8.69864 19.9634 8.62646C20.1667 8.55428 20.3678 8.47307 20.5666 8.38283C20.7654 8.29259 20.8865 8.2353 20.9298 8.21094C20.9723 8.18568 20.9949 8.17215 20.9976 8.17033L21.0003 8.16627L21.0138 8.15951L21.0274 8.15274L21.041 8.14597L21.0545 8.1392L21.0572 8.13514L21.0613 8.13244L21.0654 8.12973L21.0681 8.12567L21.0816 8.12161L21.0952 8.1189L21.0925 8.1392L21.0884 8.15951L21.0816 8.17981L21.0748 8.20011L21.0681 8.21365L21.0613 8.22718L21.0545 8.24748C21.05 8.26102 21.0455 8.27906 21.041 8.30162C21.0364 8.32419 20.9935 8.41441 20.9122 8.57232C20.8309 8.73023 20.7292 8.89039 20.6072 9.05281C20.4853 9.21523 20.3759 9.33793 20.2793 9.42096C20.1817 9.50487 20.1171 9.56352 20.0854 9.59691C20.0538 9.63119 20.0154 9.66277 19.9702 9.69165L19.9024 9.73632L19.8889 9.74309L19.8753 9.74985L19.8726 9.75392L19.8686 9.75662L19.8645 9.75933L19.8618 9.76339L19.8482 9.77016L19.8347 9.77692L19.832 9.78099L19.8279 9.78369L19.8238 9.7864L19.8211 9.79046L19.8184 9.79452L19.8144 9.79723L19.8103 9.79993L19.8076 9.80399H19.8753L20.2548 9.72279C20.5078 9.66865 20.7496 9.60323 20.98 9.52653L21.3459 9.40472L21.3866 9.39118L21.4069 9.38441L21.4205 9.37765L21.434 9.37088L21.4476 9.36411L21.4611 9.35734L21.4882 9.35328L21.5153 9.35058V9.37765L21.5086 9.38035L21.5018 9.38441L21.4991 9.38847L21.495 9.39118L21.4909 9.39389L21.4882 9.39795L21.4855 9.40201L21.4814 9.40472L21.4774 9.40742L21.4747 9.41148L21.472 9.41554L21.4679 9.41825L21.4611 9.43179L21.4543 9.44532L21.4503 9.44803C21.4485 9.45073 21.3911 9.52742 21.2781 9.67812C21.1652 9.82971 21.1042 9.9064 21.0952 9.90821C21.0861 9.91092 21.0735 9.92445 21.0572 9.94882C21.0419 9.97407 20.9461 10.0747 20.7699 10.2506C20.5937 10.4266 20.4211 10.5831 20.2521 10.7203C20.0823 10.8584 19.9964 11.028 19.9946 11.2292C19.9919 11.4295 19.9815 11.656 19.9634 11.9087C19.9454 12.1613 19.9115 12.4343 19.8618 12.7275C19.8121 13.0208 19.7353 13.3524 19.6314 13.7223C19.5275 14.0923 19.401 14.4532 19.2519 14.8051C19.1028 15.157 18.9469 15.4728 18.7843 15.7526C18.6216 16.0323 18.4725 16.2692 18.337 16.4632C18.2015 16.6572 18.0637 16.8399 17.9236 17.0113C17.7836 17.1828 17.6065 17.3759 17.3923 17.5906C17.1773 17.8045 17.0598 17.9218 17.0399 17.9425C17.0192 17.9624 16.9306 18.0364 16.7743 18.1645C16.6189 18.2935 16.4517 18.4225 16.2728 18.5516C16.0948 18.6797 15.9312 18.7866 15.7822 18.8724C15.6331 18.9581 15.4533 19.056 15.2427 19.1661C15.0331 19.2771 14.8063 19.3799 14.5623 19.4747C14.3184 19.5694 14.0608 19.6574 13.7898 19.7386C13.5187 19.8198 13.2567 19.883 13.0037 19.9281C12.7507 19.9732 12.4638 20.0116 12.143 20.0431L11.6619 20.0905V20.0973H10.7809V20.0905L10.6657 20.0837C10.5889 20.0792 10.5256 20.0747 10.4759 20.0702C10.4262 20.0657 10.2387 20.0409 9.91344 19.9958C9.58815 19.9506 9.3329 19.9055 9.14766 19.8604C8.96244 19.8153 8.68684 19.7296 8.32089 19.6032C7.95494 19.4769 7.64185 19.3492 7.38162 19.2202C7.1223 19.0921 6.95966 19.0109 6.89369 18.9766C6.82864 18.9432 6.75545 18.9017 6.67413 18.8521L6.55214 18.7776L6.54945 18.7736L6.54537 18.7709L6.5413 18.7681L6.53859 18.7641L6.52504 18.7573L6.51148 18.7506L6.50879 18.7465L6.50471 18.7438L6.50064 18.7411L6.49793 18.737L6.49523 18.733L6.49115 18.7302H6.48438V18.7032L6.49793 18.7059L6.51148 18.7099L6.57247 18.7167C6.61313 18.7212 6.72383 18.728 6.90454 18.737C7.08526 18.746 7.27726 18.746 7.48057 18.737C7.68387 18.728 7.8917 18.7077 8.10403 18.6761C8.31638 18.6445 8.56712 18.5904 8.85626 18.5137C9.14541 18.437 9.41106 18.3459 9.65322 18.2403C9.89448 18.1338 10.0661 18.0544 10.1683 18.0021C10.2695 17.9506 10.424 17.855 10.6318 17.7151L10.9435 17.5053L10.9462 17.5013L10.9503 17.4986L10.9544 17.4959L10.9571 17.4918L10.9598 17.4877L10.9638 17.485L10.9679 17.4823L10.9706 17.4783L10.9842 17.4742L10.9977 17.4715L11.0004 17.458L11.0045 17.4444L11.0086 17.4417L11.0113 17.4377L10.9029 17.4309C10.8306 17.4264 10.7605 17.4219 10.6928 17.4174C10.625 17.4129 10.5188 17.3926 10.3743 17.3565C10.2297 17.3204 10.0738 17.2662 9.90666 17.194C9.73951 17.1219 9.57686 17.0361 9.41873 16.9369C9.26062 16.8376 9.1463 16.755 9.07583 16.6892C9.00625 16.6242 8.91589 16.5322 8.80475 16.4131C8.69452 16.2931 8.59874 16.1699 8.51742 16.0436C8.43609 15.9173 8.35839 15.7715 8.28431 15.6064L8.1718 15.3601L8.16502 15.3398L8.15825 15.3195L8.15418 15.3059L8.15147 15.2924L8.1718 15.2951L8.19213 15.2992L8.34122 15.3195C8.44062 15.333 8.59649 15.3375 8.80882 15.333C9.02116 15.3285 9.16799 15.3195 9.24931 15.3059C9.33063 15.2924 9.38033 15.2834 9.3984 15.2789L9.42551 15.2721L9.45939 15.2653L9.49328 15.2586L9.49599 15.2545L9.50005 15.2518L9.50413 15.2491L9.50683 15.245L9.47972 15.2382L9.45262 15.2315L9.42551 15.2247L9.3984 15.2179L9.37129 15.2112C9.35323 15.2067 9.32161 15.1976 9.27642 15.1841C9.23124 15.1706 9.10926 15.1209 8.91047 15.0352C8.71169 14.9495 8.55356 14.866 8.43609 14.7848C8.31833 14.7034 8.20605 14.6143 8.09997 14.5182C7.99425 14.4207 7.87815 14.2953 7.75164 14.1419C7.62514 13.9885 7.5122 13.8103 7.4128 13.6073C7.31341 13.4043 7.23886 13.2103 7.18916 13.0253C7.13966 12.8414 7.107 12.6534 7.09159 12.4636L7.06718 12.1794L7.08073 12.1821L7.09429 12.1861L7.10784 12.1929L7.12139 12.1997L7.13495 12.2064L7.1485 12.2132L7.35858 12.3079C7.49865 12.3711 7.67258 12.4253 7.8804 12.4704C8.08823 12.5155 8.21246 12.5403 8.25312 12.5448L8.31411 12.5516H8.43609L8.4334 12.5475L8.42932 12.5448L8.42525 12.5421L8.42254 12.538L8.41984 12.534L8.41576 12.5313L8.4117 12.5286L8.40899 12.5245L8.39543 12.5177L8.38188 12.511L8.37918 12.5069L8.3751 12.5042L8.37104 12.5015L8.36833 12.4974L8.35477 12.4907L8.34122 12.4839L8.33852 12.4798C8.33581 12.478 8.29695 12.4492 8.22195 12.3932C8.14785 12.3364 8.07015 12.2628 7.98883 12.1726C7.9075 12.0824 7.82618 11.9876 7.74486 11.8884C7.66339 11.7889 7.59082 11.6825 7.528 11.5703C7.46476 11.4575 7.39789 11.314 7.32741 11.1399C7.25784 10.9666 7.20498 10.792 7.16883 10.6161C7.1327 10.4401 7.11237 10.2664 7.10784 10.095C7.10333 9.92355 7.10784 9.77692 7.12139 9.65511C7.13495 9.5333 7.16206 9.39569 7.20272 9.2423C7.24338 9.08891 7.30212 8.92649 7.37891 8.75504L7.49412 8.49788L7.5009 8.47758L7.50767 8.45727L7.51175 8.45457L7.51445 8.45051L7.51716 8.44645L7.52123 8.44374L7.52531 8.44645L7.528 8.45051L7.53071 8.45457L7.53478 8.45727L7.53886 8.45998L7.54156 8.46404L7.54427 8.4681L7.54833 8.47081L7.55511 8.48434L7.56189 8.49788L7.56597 8.50059L7.56866 8.50465L7.75164 8.70767C7.87362 8.84302 8.0182 8.99416 8.18535 9.16109C8.35252 9.32801 8.44514 9.41464 8.4632 9.42096C8.48128 9.42817 8.50386 9.44892 8.53097 9.48322C8.55808 9.51661 8.64844 9.59646 8.80204 9.72279C8.95566 9.84911 9.1567 9.99574 9.40518 10.1627C9.65367 10.3296 9.92926 10.4943 10.2319 10.6567C10.5347 10.8191 10.8599 10.9657 11.2078 11.0966C11.5557 11.2274 11.7997 11.3131 11.9397 11.3537C12.0798 11.3943 12.3192 11.4462 12.658 11.5094C12.9969 11.5726 13.2522 11.6132 13.4238 11.6312C13.5955 11.6492 13.713 11.6596 13.7762 11.6623L13.8711 11.665L13.8684 11.6447L13.8643 11.6244L13.8372 11.4552C13.8191 11.3425 13.8101 11.1846 13.8101 10.9815C13.8101 10.7785 13.8259 10.5913 13.8575 10.4198C13.8892 10.2484 13.9366 10.0747 13.9999 9.89874C14.0631 9.72279 14.125 9.58156 14.1855 9.4751C14.247 9.36952 14.3274 9.24906 14.4268 9.11372C14.5262 8.97837 14.655 8.83851 14.8131 8.69413C14.9712 8.54976 15.1519 8.42118 15.3552 8.30839C15.5585 8.1956 15.746 8.10987 15.9177 8.05123C16.0894 7.99258 16.2339 7.95422 16.3514 7.93618C16.4689 7.91814 16.5276 7.90776 16.5276 7.90505V7.90505Z" fill="white"/>
</svg>
