<svg width="28" height="28" viewBox="0 0 28 28" fill="none" xmlns="http://www.w3.org/2000/svg">
<path d="M14.1537 5.57324C9.58458 5.57324 5.88021 9.24864 5.88021 13.7829C5.88021 15.3339 6.31403 16.7845 7.06742 18.022L5.57422 22.4265L10.1548 20.9713C11.3401 21.6216 12.7033 21.9925 14.1537 21.9925C18.7233 21.9925 22.4275 18.3166 22.4275 13.7829C22.4275 9.24864 18.7233 5.57324 14.1537 5.57324ZM18.2677 16.9007C18.0731 17.3832 17.1928 17.8236 16.8044 17.8438C16.4164 17.8644 16.4053 18.1446 14.2899 17.2256C12.1748 16.3064 10.9023 14.0715 10.802 13.9276C10.7016 13.7842 9.98262 12.7596 10.0214 11.7286C10.0605 10.6973 10.6251 10.2108 10.8266 10.0084C11.0279 9.80578 11.2587 9.76948 11.3996 9.76718C11.5662 9.76447 11.6741 9.76222 11.7974 9.76677C11.9205 9.77143 12.1055 9.741 12.2657 10.167C12.4258 10.593 12.809 11.6399 12.8581 11.7466C12.907 11.8534 12.9374 11.977 12.8619 12.1141C12.7862 12.2516 12.7475 12.3374 12.6377 12.4558C12.5272 12.5743 12.4054 12.7208 12.3069 12.8113C12.1971 12.9116 12.0823 13.0209 12.1978 13.2352C12.3132 13.4494 12.7114 14.1515 13.3181 14.7301C14.0977 15.4738 14.7701 15.7205 14.977 15.8329C15.1845 15.9459 15.3083 15.9334 15.4369 15.798C15.565 15.6626 15.9876 15.2056 16.1365 15.0016C16.2853 14.7971 16.4247 14.8371 16.6158 14.914C16.8068 14.9912 17.8255 15.5368 18.033 15.6495C18.2403 15.7619 18.3789 15.8199 18.4284 15.9091C18.4779 15.9986 18.4623 16.4181 18.2677 16.9007V16.9007Z" fill="white"/>
</svg>
