<svg width="28" height="28" viewBox="0 0 28 28" fill="none" xmlns="http://www.w3.org/2000/svg">
<path d="M6.55273 8.55511C6.55273 8.07746 6.72048 7.6834 7.05596 7.37293C7.39144 7.06246 7.82758 6.90723 8.36434 6.90723C8.89154 6.90723 9.31807 7.06006 9.64397 7.36577C9.97945 7.68102 10.1472 8.09178 10.1472 8.5981C10.1472 9.05664 9.98425 9.43875 9.65835 9.74446C9.32287 10.0597 8.88195 10.2173 8.33559 10.2173H8.32121C7.79402 10.2173 7.36748 10.0597 7.04158 9.74446C6.71568 9.42921 6.55273 9.03276 6.55273 8.55511ZM6.73965 21.0934V11.5213H9.93153V21.0934H6.73965ZM11.7 21.0934H14.8919V15.7485C14.8919 15.4141 14.9302 15.1562 15.0069 14.9747C15.1411 14.6499 15.3448 14.3752 15.618 14.1508C15.8912 13.9263 16.2338 13.814 16.646 13.814C17.7195 13.814 18.2563 14.5353 18.2563 15.9778V21.0934H21.4482V15.6052C21.4482 14.1914 21.1127 13.119 20.4417 12.3882C19.7708 11.6574 18.8841 11.292 17.7818 11.292C16.5453 11.292 15.582 11.8222 14.8919 12.8826V12.9113H14.8775L14.8919 12.8826V11.5213H11.7C11.7192 11.827 11.7288 12.7775 11.7288 14.3729C11.7288 15.9682 11.7192 18.2084 11.7 21.0934Z" fill="white"/>
</svg>
