<svg width="305" height="148" viewBox="0 0 305 148" fill="none" xmlns="http://www.w3.org/2000/svg">
<path fill-rule="evenodd" clip-rule="evenodd" d="M113.782 100.486V89.8875L67.8922 63.3931V63.3923L67.8916 63.3927L67.8905 63.3921V63.3933L40.3574 79.2896V89.8877L67.8916 73.9909L113.782 100.486Z" fill="#7589FF"/>
<path fill-rule="evenodd" clip-rule="evenodd" d="M67.8905 42.1973L40.3574 58.0935V68.6917L67.8912 52.795L113.782 79.2901V68.6919L67.8922 42.1975V42.1963L67.8912 42.1969L67.8905 42.1965V42.1973Z" fill="#3A3A3A"/>
<path fill-rule="evenodd" clip-rule="evenodd" d="M67.8905 21.001L40.3574 36.8972V47.4954L67.8912 31.5988L113.782 58.0938V47.4956L67.8922 21.0012V21L67.8912 21.0006L67.8905 21.0002V21.001Z" fill="#3A3A3A"/>
<path fill-rule="evenodd" clip-rule="evenodd" d="M22.0015 47.4954L31.1797 42.1963V52.7944V63.3926V73.9907V84.5888H31.1797V95.187L31.1792 95.1873L67.8911 116.383L95.4258 100.486L104.604 105.785L77.0694 121.682L77.0696 121.682L67.8913 126.981L67.8911 126.981L67.891 126.981L58.7127 121.682L58.7129 121.682L22 100.486L22.0014 100.485L22.0014 89.8879H22.0015V79.2898V68.6916V58.0935L22.0015 47.4954Z" fill="#7589FF"/>
<path d="M187.382 47.5078L193.005 70.5623L187.534 92.6918L176.59 47.4956L187.382 47.5078ZM234.269 47.5078H245.067L232.148 100.415H218.34L210.789 68.2131L203.39 100.415H192.367L205.427 47.5078H216.297L225.283 91.1155L234.269 47.5078Z" fill="#3A3A3A"/>
<path d="M268.306 69.631C270.525 70.2178 272.707 70.9318 274.844 71.7696C276.695 72.4763 278.437 73.4445 280.014 74.6447C281.435 75.7316 282.602 77.1164 283.431 78.702C284.275 80.4541 284.682 82.384 284.619 84.3275V84.5473C284.645 86.7932 284.153 89.0149 283.181 91.0402C282.232 92.9928 280.872 94.7172 279.194 96.0954C277.421 97.5397 275.393 98.6397 273.215 99.3389C270.797 100.122 268.269 100.509 265.727 100.485C263.299 100.494 260.88 100.186 258.531 99.5706C256.367 99.0066 254.275 98.1953 252.297 97.1528C250.529 96.2207 248.88 95.0777 247.388 93.749C246.1 92.621 245.014 91.2809 244.179 89.7867L252.808 84.3275C253.688 85.3037 254.625 86.228 255.613 87.0958C256.527 87.8862 257.523 88.5771 258.584 89.1571C259.652 89.7387 260.793 90.1743 261.977 90.4521C263.309 90.7552 264.671 90.9027 266.036 90.8917C266.993 90.8907 267.946 90.7932 268.883 90.6006C269.798 90.4143 270.68 90.0898 271.498 89.6382C272.249 89.2264 272.903 88.6594 273.417 87.9749C273.927 87.252 274.186 86.3818 274.154 85.4978C274.151 84.8005 273.975 84.1149 273.643 83.5018C273.193 82.7521 272.584 82.1095 271.86 81.6187C270.805 80.8862 269.664 80.2875 268.461 79.8366C266.703 79.1697 264.905 78.6142 263.077 78.1733C260.643 77.6106 258.249 76.8882 255.91 76.011C253.977 75.2951 252.162 74.2939 250.526 73.0408C249.088 71.9346 247.924 70.5116 247.126 68.8825C246.299 67.0765 245.893 65.1062 245.938 63.1204C245.904 60.8685 246.368 58.6371 247.299 56.5859C248.179 54.6737 249.484 52.9874 251.114 51.6554C252.812 50.2854 254.751 49.2439 256.831 48.5842C259.108 47.8521 261.487 47.4852 263.879 47.4971C266.266 47.4714 268.645 47.7692 270.951 48.3823C272.926 48.9161 274.833 49.6714 276.638 50.6337C278.232 51.4803 279.715 52.5198 281.054 53.7286C282.19 54.7579 283.237 55.8806 284.186 57.0849L275.705 62.5441C273.964 60.7896 271.929 59.3541 269.691 58.3027C267.814 57.4964 265.792 57.082 263.748 57.0849C262.636 57.0597 261.527 57.2224 260.468 57.5661C259.657 57.8348 258.895 58.2363 258.216 58.7542C257.657 59.1846 257.192 59.7243 256.849 60.3403C256.55 60.8554 256.386 61.4379 256.373 62.0333C256.349 62.9438 256.62 63.8377 257.146 64.5817C257.763 65.3721 258.535 66.0273 259.416 66.5064C260.61 67.1773 261.87 67.7209 263.178 68.1281C264.679 68.6311 266.389 69.132 268.306 69.631Z" fill="#3A3A3A"/>
<path d="M178.511 77.3855C177.405 75.2568 175.829 73.4085 173.903 71.981C174.709 70.7235 175.345 69.3645 175.794 67.9397C176.252 66.4578 176.482 64.9143 176.475 63.3629C176.478 61.2565 176.054 59.1713 175.228 57.2341C173.637 53.3916 170.599 50.3306 166.771 48.7134C164.824 47.8928 162.731 47.4786 160.618 47.4961H134.87V100.477H164.394C166.506 100.497 168.601 100.083 170.547 99.2594C172.443 98.4455 174.162 97.2669 175.605 95.7902C177.043 94.3219 178.196 92.5985 179.004 90.7082C179.831 88.7468 180.245 86.6354 180.22 84.5064C180.244 82.0282 179.657 79.5823 178.511 77.3855ZM145.443 56.6924H160.643C161.34 56.6903 162.027 56.8596 162.643 57.1854C163.966 57.8792 164.987 59.036 165.513 60.4354C166.064 61.9237 166.064 63.5605 165.513 65.0488C165.249 65.765 164.841 66.4195 164.315 66.972C163.825 67.4922 163.252 67.9263 162.619 68.2562C162.002 68.582 161.315 68.7513 160.618 68.7492H145.419L145.443 56.6924ZM169.264 87.3973C168.998 88.0806 168.629 88.7189 168.17 89.2901C167.714 89.8527 167.165 90.3324 166.546 90.7082C165.944 91.0767 165.252 91.2725 164.546 91.2742H145.443V79.2357H164.394C165.095 79.2353 165.785 79.4178 166.394 79.7652C167.029 80.126 167.601 80.5863 168.09 81.1285C168.599 81.6898 168.997 82.3423 169.264 83.0518C169.536 83.7652 169.676 84.522 169.677 85.2854C169.673 86.0091 169.533 86.7255 169.264 87.3973Z" fill="#3A3A3A"/>
</svg>
