<?xml version="1.0" encoding="utf-8"?>
<!-- Generator: Adobe Illustrator 25.0.1, SVG Export Plug-In . SVG Version: 6.00 Build 0)  -->
<svg version="1.1" id="Layer_1" xmlns="http://www.w3.org/2000/svg" xmlns:xlink="http://www.w3.org/1999/xlink" x="0px" y="0px"
	 viewBox="0 0 6000 3000" style="enable-background:new 0 0 6000 3000;" xml:space="preserve">
<style type="text/css">
	.st0{fill:#003F7F;}
	.st1{fill:#007FBF;}
	.st2{fill:#FFFFFF;}
</style>
<g id="XMLID_520_">
	<rect id="XMLID_582_" y="1050" class="st0" width="4834.68" height="900"/>
	<rect id="XMLID_581_" class="st0" width="6000" height="900"/>
	<rect id="XMLID_580_" y="2100" class="st1" width="3086.73" height="900"/>
	<g id="XMLID_567_">
		<path id="XMLID_578_" class="st2" d="M637.93,2487.36V2850H508.22v-77.66c-17.64,52.09-56.47,83.85-139.41,83.85
			c-148.22,0-247.04-112.94-247.04-315.01s102.34-310.56,267.33-310.56c136.76,0,229.4,70.57,247.04,203.8H475.56
			c-8.84-54.71-36.17-72.36-86.47-72.36c-70.59,0-106.76,50.31-106.76,179.12c0,127.96,32.65,183.53,103.24,183.53
			c55.57,0,88.23-31.76,96.16-105.87h-104.1v-131.48H637.93z"/>
		<path id="XMLID_576_" class="st2" d="M979.32,2732.64h174.69V2850H743.7v-117.36H839v-215.28h-95.3V2400h235.62v82.94
			c33.52-60.89,98.82-93.54,224.98-93.54v142.97c-223.22-15.02-224.98,41.45-224.98,156.15V2732.64z"/>
		<path id="XMLID_573_" class="st2" d="M1790.96,2623.22c0,142.97-104.1,237.38-244.38,237.38c-140.31,0-244.42-94.4-244.42-237.38
			c0-140.28,104.1-233.82,244.42-233.82C1686.85,2389.4,1790.96,2482.94,1790.96,2623.22z M1443.34,2623.22
			c0,72.38,41.45,120.02,102.34,120.02c61.75,0,103.24-47.63,103.24-120.02c0-69.69-41.49-116.46-103.24-116.46
			C1484.79,2506.76,1443.34,2553.53,1443.34,2623.22z"/>
		<path id="XMLID_571_" class="st2" d="M2352.04,2850h-140.28v-67.07c-28.24,53.85-77.63,77.66-145.59,77.66
			c-105,0-164.09-72.35-164.09-179.11V2400h140.28v244.42c0,58.23,30.89,90.88,75.01,90.88c53.81,0,94.4-34.41,94.4-109.42V2400
			h140.28V2850z"/>
		<path id="XMLID_568_" class="st2" d="M2959.03,2626.78c0,140.28-84.71,233.82-205.58,233.82c-50.29,0-101.48-15.88-135.89-60.89
			h-0.86V3000h-140.31v-600h140.31v57.37h1.76c33.52-45.91,79.39-67.97,137.62-67.97C2872.56,2389.4,2959.03,2485.6,2959.03,2626.78
			z M2816.96,2625.88c0-72.35-40.59-119.12-101.45-119.12c-61.79,0-103.24,46.77-103.24,117.36v6.18
			c0.86,67.93,41.45,112.94,103.24,112.94C2777.26,2743.24,2816.96,2696.47,2816.96,2625.88z"/>
	</g>
	<g id="XMLID_547_">
		<path id="XMLID_565_" class="st2" d="M307.05,1331.48v120.89h305.27v132.34H307.05V1800H152.62v-600h480v131.48H307.05z"/>
		<path id="XMLID_562_" class="st2" d="M1209.58,1573.22c0,142.97-104.1,237.38-244.38,237.38c-140.31,0-244.42-94.4-244.42-237.38
			c0-140.28,104.1-233.82,244.42-233.82C1105.47,1339.4,1209.58,1432.94,1209.58,1573.22z M861.96,1573.22
			c0,72.38,41.45,120.02,102.34,120.02c61.75,0,103.24-47.63,103.24-120.02c0-69.69-41.49-116.46-103.24-116.46
			C903.41,1456.76,861.96,1503.53,861.96,1573.22z"/>
		<path id="XMLID_560_" class="st2" d="M1770.66,1800h-140.28v-67.07c-28.24,53.85-77.63,77.66-145.59,77.66
			c-105,0-164.09-72.35-164.09-179.11V1350h140.28v244.42c0,58.23,30.89,90.88,75.01,90.88c53.81,0,94.4-34.41,94.4-109.42V1350
			h140.28V1800z"/>
		<path id="XMLID_558_" class="st2" d="M2353.83,1518.55V1800h-140.31v-244.42c0-58.23-30.89-90.88-75.01-90.88
			c-53.81,0-94.4,34.41-94.4,109.42V1800h-140.28v-450h140.28v67.07c28.24-53.81,77.66-77.66,145.59-77.66
			C2294.71,1339.4,2353.83,1411.75,2353.83,1518.55z"/>
		<path id="XMLID_555_" class="st2" d="M2459.6,1573.22c0-140.28,84.71-233.82,205.62-233.82c50.29,0,101.44,15.88,135.86,60.89h0.9
			V1200h140.28v600h-140.28v-57.37h-1.76c-33.55,45.91-79.42,67.97-137.65,67.97C2546.1,1810.6,2459.6,1714.4,2459.6,1573.22z
			 M2601.67,1574.12c0,72.35,40.59,119.12,101.48,119.12c61.75,0,103.24-46.77,103.24-117.36v-6.18
			c-0.9-67.93-41.49-112.94-103.24-112.94C2641.37,1456.76,2601.67,1503.53,2601.67,1574.12z"/>
		<path id="XMLID_552_" class="st2" d="M3049.78,1575.88c0-136.76,97.06-236.48,245.28-236.48c148.25,0,232.06,101.48,232.06,248.83
			v21.16h-329.98v0.9c5.28,56.47,41.45,88.23,97.06,88.23c44.11,0,72.35-17.64,86.47-42.35h142.94
			c-27.34,81.18-92.64,154.43-221.46,154.43C3145.94,1810.6,3049.78,1712.64,3049.78,1575.88z M3385.08,1530.01
			c-5.32-52.05-37.93-84.71-90.88-84.71c-51.19,0-86.47,32.65-95.3,84.71H3385.08z"/>
		<path id="XMLID_550_" class="st2" d="M3886.17,1682.64h174.69V1800h-410.31v-117.36h95.3v-215.28h-95.3V1350h235.61v82.94
			c33.52-60.89,98.82-93.54,224.98-93.54v142.97c-223.22-15.02-224.98,41.45-224.98,156.15V1682.64z"/>
		<path id="XMLID_548_" class="st2" d="M4455.19,1439.98c-47.67,0-79.42,14.15-79.42,41.49c0,24.71,26.48,30,63.55,35.28
			l104.1,13.26c70.59,8.84,139.42,45.01,139.42,129.72c0,93.51-84.71,149.11-220.6,149.11c-148.22,0-232.92-65.31-239.1-166.79
			h139.42c3.52,40.59,41.45,62.65,101.45,62.65c51.19,0,79.42-14.98,79.42-39.69c0-15.88-11.46-29.13-51.19-33.52l-98.82-12.36
			c-89.99-11.5-157.05-46.77-157.05-132.37c0-92.64,81.19-145.56,211.76-145.56c135.9,0,221.46,57.33,230.3,150.88H4539.9
			C4532.82,1453.24,4494.03,1439.98,4455.19,1439.98z"/>
	</g>
	<g id="XMLID_521_">
		<path id="XMLID_543_" class="st2" d="M638.8,584.1c0,102.38-80.29,165.9-193.23,165.9H150V150h279.69
			c110.28,0,193.23,57.38,193.23,155.3c0,73.25-47.63,112.94-125.3,134.1C584.09,457.08,638.8,499.39,638.8,584.1z M304.39,386.49
			h82.94c54.71,0,83.81-16.78,83.81-56.47c0-38.83-27.34-56.47-80.29-56.47h-86.47V386.49z M486.16,562.94
			c0-41.49-29.13-59.13-86.47-59.13h-95.3v121.78h86.47C452.65,625.59,486.16,606.16,486.16,562.94z"/>
		<path id="XMLID_541_" class="st2" d="M1221.07,632.64V750H721.64V632.64h176.49V267.36H746.36V150h291.19v482.64H1221.07z"/>
		<path id="XMLID_538_" class="st2" d="M1790.96,523.22c0,142.97-104.1,237.38-244.38,237.38c-140.31,0-244.42-94.4-244.42-237.38
			c0-140.28,104.1-233.82,244.42-233.82C1686.85,289.4,1790.96,382.94,1790.96,523.22z M1443.34,523.22
			c0,72.38,41.45,120.02,102.34,120.02c61.75,0,103.24-47.63,103.24-120.02c0-69.69-41.49-116.46-103.24-116.46
			C1484.79,406.76,1443.34,453.53,1443.34,523.22z"/>
		<path id="XMLID_536_" class="st2" d="M2137.65,760.6c-142.94,0-247.07-99.72-247.07-237.38c0-136.76,104.14-233.82,246.18-233.82
			c127.06,0,228.54,76.77,232.06,187.08h-142.04c-7.08-42.35-37.97-69.73-89.12-69.73c-64.41,0-105,45.87-105,116.46
			c0,72.38,40.59,120.02,105,120.02c49.39,0,83.81-27.34,89.99-76.77h141.18C2366.19,681.17,2265.57,760.6,2137.65,760.6z"/>
		<path id="XMLID_534_" class="st2" d="M2724.31,564.71h-97.92V750h-139.41V150h139.41v297.35h95.3L2803.74,300h167.65
			l-129.72,200.3L2985.5,750h-168.55L2724.31,564.71z"/>
		<path id="XMLID_532_" class="st2" d="M3300.38,760.6c-142.94,0-247.07-99.72-247.07-237.38c0-136.76,104.14-233.82,246.18-233.82
			c127.06,0,228.54,76.77,232.06,187.08H3389.5c-7.08-42.35-37.97-69.73-89.12-69.73c-64.41,0-105,45.87-105,116.46
			c0,72.38,40.59,120.02,105,120.02c49.39,0,83.81-27.34,89.99-76.77h141.18C3528.88,681.17,3428.29,760.6,3300.38,760.6z"/>
		<path id="XMLID_530_" class="st2" d="M4098.8,468.55V750h-140.28V505.58c0-58.23-30.89-90.88-75.01-90.88
			c-53.81,0-94.4,34.41-94.4,109.42V750H3648.8V150h140.31v217.07c28.24-53.81,77.63-77.66,145.59-77.66
			C4038.81,289.4,4098.8,361.79,4098.8,468.55z"/>
		<path id="XMLID_527_" class="st2" d="M4203.7,523.22c0-140.28,92.64-234.68,213.56-234.68c51.15,0,100.58,16.78,127.92,61.75h0.9
			V300h140.28v450h-140.28v-57.37h-1.76c-25.61,45.91-71.49,67.97-129.72,67.97C4298.14,760.6,4203.7,664.4,4203.7,523.22z
			 M4345.77,524.12c0,72.35,40.59,119.12,101.48,119.12c61.75,0,103.21-46.77,103.21-117.36v-6.18
			c-0.86-67.93-41.45-112.94-103.21-112.94C4385.47,406.76,4345.77,453.53,4345.77,524.12z"/>
		<path id="XMLID_525_" class="st2" d="M5842.07,468.55V750h-140.31V505.58c0-58.23-30.86-90.88-75.01-90.88
			c-53.81,0-94.4,34.41-94.4,109.42V750h-140.28V300h140.28v67.07c28.23-53.81,77.66-77.66,145.59-77.66
			C5782.94,289.4,5842.07,361.79,5842.07,468.55z"/>
		<path id="XMLID_523_" class="st2" d="M5285.37,632.64V750h-485.28V632.64h172.93V417.36h-145.59V300h285.91v332.64H5285.37z"/>
		<rect id="XMLID_522_" x="4973.03" y="75" class="st2" width="140.31" height="150"/>
	</g>
</g>
</svg>
