<svg xmlns="http://www.w3.org/2000/svg" xmlns:xlink="http://www.w3.org/1999/xlink" width="1172" zoomAndPan="magnify" viewBox="0 0 878.88 111.749996" height="149" preserveAspectRatio="xMidYMid meet" version="1.0"><path fill="#ffffff" d="M 43.09375 28.359375 L 63.699219 16.464844 L 98.042969 36.289062 L 98.042969 44.222656 L 63.699219 24.394531 L 43.09375 36.289062 Z M 98.042969 52.152344 L 98.042969 60.082031 L 63.699219 40.257812 L 43.09375 52.152344 L 43.09375 44.222656 L 63.699219 32.324219 Z M 98.042969 75.945312 L 98.042969 68.015625 L 63.699219 48.1875 L 43.09375 60.082031 L 43.09375 68.015625 L 63.699219 56.117188 Z M 36.226562 71.980469 L 63.699219 87.839844 L 84.304688 75.945312 L 91.171875 79.910156 L 63.699219 95.773438 L 29.359375 75.945312 L 29.359375 36.289062 L 36.226562 32.324219 Z M 36.226562 71.980469 " fill-opacity="1" fill-rule="evenodd"/><path fill="#ffffff" d="M 114.179688 76.738281 L 114.179688 37.546875 L 131.03125 37.546875 C 132.523438 37.546875 133.925781 37.847656 135.230469 38.445312 C 136.539062 39.042969 137.675781 39.84375 138.648438 40.851562 C 139.617188 41.859375 140.382812 43.035156 140.941406 44.378906 C 141.5 45.683594 141.78125 47.085938 141.78125 48.578125 C 141.78125 49.921875 141.539062 51.226562 141.054688 52.496094 C 140.605469 53.765625 139.953125 54.902344 139.09375 55.910156 C 140.402344 56.992188 141.425781 58.320312 142.171875 59.886719 C 142.917969 61.417969 143.292969 63.097656 143.292969 64.925781 C 143.292969 66.53125 142.996094 68.058594 142.398438 69.515625 C 141.800781 70.933594 140.980469 72.183594 139.933594 73.265625 C 138.890625 74.347656 137.675781 75.207031 136.292969 75.84375 C 134.914062 76.4375 133.441406 76.738281 131.871094 76.738281 Z M 131.03125 53.222656 C 132.039062 53.222656 132.953125 52.8125 133.777344 51.992188 C 134.632812 51.171875 135.0625 50.125 135.0625 48.855469 C 135.0625 47.550781 134.632812 46.503906 133.777344 45.722656 C 132.953125 44.902344 132.039062 44.492188 131.03125 44.492188 L 121.457031 44.492188 L 121.457031 53.28125 Z M 131.871094 69.738281 C 132.507812 69.738281 133.085938 69.609375 133.609375 69.347656 C 134.128906 69.085938 134.597656 68.730469 135.007812 68.285156 C 135.417969 67.835938 135.734375 67.3125 135.957031 66.714844 C 136.183594 66.121094 136.292969 65.503906 136.292969 64.871094 C 136.292969 64.199219 136.183594 63.5625 135.957031 62.964844 C 135.734375 62.367188 135.417969 61.847656 135.007812 61.398438 C 134.597656 60.949219 134.128906 60.59375 133.609375 60.335938 C 133.085938 60.074219 132.507812 59.941406 131.871094 59.941406 L 121.457031 59.941406 L 121.457031 69.738281 Z M 131.871094 69.738281 " fill-opacity="1" fill-rule="nonzero"/><path fill="#ffffff" d="M 157.910156 76.738281 C 156.527344 76.960938 155.242188 77.074219 154.046875 77.074219 C 153.039062 77.074219 152.125 76.960938 151.304688 76.738281 C 150.480469 76.476562 149.773438 76.066406 149.175781 75.507812 C 148.617188 74.910156 148.167969 74.105469 147.832031 73.097656 C 147.53125 72.089844 147.382812 70.820312 147.382812 69.292969 L 147.382812 37.546875 L 154.328125 37.546875 L 154.328125 68.84375 C 154.328125 69.703125 154.585938 70.226562 155.109375 70.410156 C 155.667969 70.5625 156.601562 70.542969 157.910156 70.355469 Z M 157.910156 76.738281 " fill-opacity="1" fill-rule="nonzero"/><path fill="#ffffff" d="M 175.042969 77.523438 C 172.992188 77.523438 171.070312 77.148438 169.277344 76.402344 C 167.484375 75.617188 165.917969 74.554688 164.574219 73.210938 C 163.230469 71.867188 162.167969 70.300781 161.382812 68.507812 C 160.636719 66.714844 160.261719 64.8125 160.261719 62.796875 C 160.261719 60.78125 160.636719 58.878906 161.382812 57.085938 C 162.167969 55.296875 163.230469 53.726562 164.574219 52.382812 C 165.917969 51.039062 167.484375 49.996094 169.277344 49.25 C 171.070312 48.464844 172.992188 48.074219 175.042969 48.074219 C 177.058594 48.074219 178.945312 48.464844 180.699219 49.25 C 182.488281 49.996094 184.058594 51.039062 185.402344 52.382812 C 186.746094 53.726562 187.789062 55.296875 188.535156 57.085938 C 189.320312 58.878906 189.710938 60.78125 189.710938 62.796875 C 189.710938 64.8125 189.320312 66.714844 188.535156 68.507812 C 187.789062 70.300781 186.746094 71.867188 185.402344 73.210938 C 184.058594 74.554688 182.488281 75.617188 180.699219 76.402344 C 178.945312 77.148438 177.058594 77.523438 175.042969 77.523438 Z M 174.988281 70.578125 C 176.070312 70.578125 177.078125 70.375 178.011719 69.964844 C 178.980469 69.554688 179.820312 69.011719 180.53125 68.339844 C 181.238281 67.632812 181.800781 66.808594 182.210938 65.875 C 182.621094 64.90625 182.824219 63.878906 182.824219 62.796875 C 182.824219 61.714844 182.621094 60.707031 182.210938 59.773438 C 181.800781 58.804688 181.238281 57.964844 180.53125 57.253906 C 179.820312 56.546875 178.980469 55.984375 178.011719 55.574219 C 177.078125 55.164062 176.070312 54.960938 174.988281 54.960938 C 173.90625 54.960938 172.878906 55.164062 171.910156 55.574219 C 170.976562 55.984375 170.152344 56.546875 169.445312 57.253906 C 168.773438 57.964844 168.230469 58.804688 167.820312 59.773438 C 167.410156 60.707031 167.207031 61.714844 167.207031 62.796875 C 167.207031 63.878906 167.410156 64.90625 167.820312 65.875 C 168.230469 66.808594 168.773438 67.632812 169.445312 68.339844 C 170.152344 69.011719 170.976562 69.554688 171.910156 69.964844 C 172.878906 70.375 173.90625 70.578125 174.988281 70.578125 Z M 174.988281 70.578125 " fill-opacity="1" fill-rule="nonzero"/><path fill="#ffffff" d="M 219.542969 71.308594 C 218.199219 73.210938 216.480469 74.722656 214.390625 75.84375 C 212.300781 76.960938 210.023438 77.523438 207.5625 77.523438 C 205.507812 77.523438 203.585938 77.148438 201.792969 76.402344 C 200.003906 75.617188 198.4375 74.554688 197.089844 73.210938 C 195.75 71.867188 194.683594 70.300781 193.902344 68.507812 C 193.152344 66.714844 192.78125 64.8125 192.78125 62.796875 C 192.78125 60.78125 193.152344 58.878906 193.902344 57.085938 C 194.683594 55.296875 195.75 53.726562 197.089844 52.382812 C 198.4375 51.039062 200.003906 49.996094 201.792969 49.25 C 203.585938 48.464844 205.507812 48.074219 207.5625 48.074219 C 210.023438 48.074219 212.28125 48.632812 214.335938 49.753906 C 216.425781 50.835938 218.144531 52.308594 219.484375 54.175781 L 213.71875 58.039062 C 212.898438 57.070312 211.964844 56.320312 210.921875 55.800781 C 209.875 55.238281 208.753906 54.960938 207.5625 54.960938 C 206.480469 54.960938 205.453125 55.164062 204.480469 55.574219 C 203.550781 55.984375 202.726562 56.546875 202.019531 57.253906 C 201.308594 57.964844 200.75 58.804688 200.339844 59.773438 C 199.929688 60.707031 199.722656 61.714844 199.722656 62.796875 C 199.722656 63.878906 199.929688 64.90625 200.339844 65.875 C 200.75 66.808594 201.308594 67.632812 202.019531 68.339844 C 202.726562 69.011719 203.550781 69.554688 204.480469 69.964844 C 205.453125 70.375 206.480469 70.578125 207.5625 70.578125 C 208.828125 70.578125 209.988281 70.300781 211.03125 69.738281 C 212.078125 69.179688 212.972656 68.433594 213.71875 67.5 Z M 219.542969 71.308594 " fill-opacity="1" fill-rule="nonzero"/><path fill="#ffffff" d="M 223.066406 37.546875 L 230.011719 37.546875 L 230.011719 60.613281 L 240.535156 48.746094 L 250.164062 48.746094 L 238.800781 61.117188 L 250.613281 76.738281 L 241.933594 76.738281 L 234.039062 66.324219 L 230.011719 70.746094 L 230.011719 76.738281 L 223.066406 76.738281 Z M 223.066406 37.546875 " fill-opacity="1" fill-rule="nonzero"/><path fill="#ffffff" d="M 276.976562 71.308594 C 275.632812 73.210938 273.917969 74.722656 271.828125 75.84375 C 269.738281 76.960938 267.460938 77.523438 264.996094 77.523438 C 262.945312 77.523438 261.023438 77.148438 259.230469 76.402344 C 257.4375 75.617188 255.871094 74.554688 254.527344 73.210938 C 253.183594 71.867188 252.121094 70.300781 251.335938 68.507812 C 250.589844 66.714844 250.21875 64.8125 250.21875 62.796875 C 250.21875 60.78125 250.589844 58.878906 251.335938 57.085938 C 252.121094 55.296875 253.183594 53.726562 254.527344 52.382812 C 255.871094 51.039062 257.4375 49.996094 259.230469 49.25 C 261.023438 48.464844 262.945312 48.074219 264.996094 48.074219 C 267.460938 48.074219 269.71875 48.632812 271.769531 49.753906 C 273.859375 50.835938 275.578125 52.308594 276.921875 54.175781 L 271.15625 58.039062 C 270.335938 57.070312 269.402344 56.320312 268.355469 55.800781 C 267.3125 55.238281 266.191406 54.960938 264.996094 54.960938 C 263.914062 54.960938 262.886719 55.164062 261.917969 55.574219 C 260.984375 55.984375 260.164062 56.546875 259.453125 57.253906 C 258.746094 57.964844 258.183594 58.804688 257.773438 59.773438 C 257.363281 60.707031 257.160156 61.714844 257.160156 62.796875 C 257.160156 63.878906 257.363281 64.90625 257.773438 65.875 C 258.183594 66.808594 258.746094 67.632812 259.453125 68.339844 C 260.164062 69.011719 260.984375 69.554688 261.917969 69.964844 C 262.886719 70.375 263.914062 70.578125 264.996094 70.578125 C 266.265625 70.578125 267.421875 70.300781 268.46875 69.738281 C 269.511719 69.179688 270.410156 68.433594 271.15625 67.5 Z M 276.976562 71.308594 " fill-opacity="1" fill-rule="nonzero"/><path fill="#ffffff" d="M 280.503906 37.546875 L 287.445312 37.546875 L 287.445312 51.097656 C 288.339844 50.238281 289.386719 49.546875 290.582031 49.023438 C 291.773438 48.464844 293.082031 48.183594 294.5 48.183594 C 295.507812 48.183594 296.644531 48.351562 297.914062 48.6875 C 299.222656 48.988281 300.433594 49.585938 301.554688 50.480469 C 302.710938 51.339844 303.679688 52.535156 304.464844 54.0625 C 305.25 55.59375 305.660156 57.574219 305.695312 60 L 305.695312 76.738281 L 298.753906 76.738281 L 298.753906 60.167969 C 298.753906 59.007812 298.566406 58.058594 298.195312 57.3125 C 297.820312 56.566406 297.355469 55.96875 296.792969 55.519531 C 296.234375 55.070312 295.601562 54.753906 294.890625 54.566406 C 294.21875 54.382812 293.546875 54.289062 292.875 54.289062 C 292.316406 54.289062 291.738281 54.382812 291.140625 54.566406 C 290.582031 54.71875 290.039062 54.976562 289.515625 55.351562 C 289.03125 55.726562 288.601562 56.230469 288.230469 56.863281 C 287.894531 57.460938 287.632812 58.207031 287.445312 59.101562 L 287.445312 76.738281 L 280.503906 76.738281 Z M 280.503906 37.546875 " fill-opacity="1" fill-rule="nonzero"/><path fill="#ffffff" d="M 331.570312 73.769531 C 330.601562 74.890625 329.445312 75.804688 328.101562 76.515625 C 326.792969 77.1875 325.246094 77.523438 323.453125 77.523438 C 321.289062 77.523438 319.328125 77.148438 317.574219 76.402344 C 315.859375 75.65625 314.382812 74.628906 313.152344 73.324219 C 311.957031 71.980469 311.023438 70.410156 310.355469 68.621094 C 309.71875 66.828125 309.402344 64.886719 309.402344 62.796875 C 309.402344 60.707031 309.71875 58.765625 310.355469 56.976562 C 311.023438 55.144531 311.957031 53.578125 313.152344 52.273438 C 314.382812 50.929688 315.859375 49.882812 317.574219 49.136719 C 319.328125 48.390625 321.289062 48.015625 323.453125 48.015625 C 325.246094 48.015625 326.792969 48.371094 328.101562 49.082031 C 329.445312 49.753906 330.601562 50.648438 331.570312 51.769531 L 331.570312 48.746094 L 338.515625 48.746094 L 338.515625 76.738281 L 331.570312 76.738281 Z M 323.621094 71.027344 C 324.777344 71.027344 325.84375 70.820312 326.8125 70.410156 C 327.785156 70 328.625 69.421875 329.332031 68.675781 C 330.042969 67.929688 330.582031 67.050781 330.957031 66.042969 C 331.367188 65.035156 331.570312 63.9375 331.570312 62.742188 C 331.570312 61.546875 331.367188 60.464844 330.957031 59.496094 C 330.582031 58.488281 330.042969 57.628906 329.332031 56.917969 C 328.625 56.171875 327.785156 55.59375 326.8125 55.183594 C 325.84375 54.773438 324.777344 54.566406 323.621094 54.566406 C 322.503906 54.566406 321.496094 54.792969 320.597656 55.238281 C 319.703125 55.648438 318.917969 56.246094 318.246094 57.03125 C 317.613281 57.777344 317.109375 58.65625 316.734375 59.664062 C 316.398438 60.632812 316.230469 61.679688 316.230469 62.796875 C 316.230469 63.917969 316.398438 64.980469 316.734375 65.988281 C 317.109375 66.996094 317.613281 67.875 318.246094 68.621094 C 318.917969 69.367188 319.703125 69.964844 320.597656 70.410156 C 321.496094 70.820312 322.503906 71.027344 323.621094 71.027344 Z M 323.621094 71.027344 " fill-opacity="1" fill-rule="nonzero"/><path fill="#ffffff" d="M 348.097656 42.25 C 347.089844 42.25 346.214844 41.894531 345.464844 41.1875 C 344.71875 40.476562 344.347656 39.601562 344.347656 38.554688 C 344.347656 37.511719 344.71875 36.632812 345.464844 35.925781 C 346.214844 35.179688 347.089844 34.804688 348.097656 34.804688 C 349.105469 34.804688 349.964844 35.179688 350.671875 35.925781 C 351.421875 36.632812 351.792969 37.511719 351.792969 38.554688 C 351.792969 39.601562 351.421875 40.476562 350.671875 41.1875 C 349.964844 41.894531 349.105469 42.25 348.097656 42.25 Z M 344.570312 48.746094 L 351.457031 48.746094 L 351.457031 76.738281 L 344.570312 76.738281 Z M 344.570312 48.746094 " fill-opacity="1" fill-rule="nonzero"/><path fill="#ffffff" d="M 382.859375 76.738281 L 375.917969 76.738281 L 375.917969 60 C 375.917969 58.839844 375.730469 57.890625 375.359375 57.144531 C 374.984375 56.398438 374.519531 55.800781 373.957031 55.351562 C 373.398438 54.902344 372.765625 54.585938 372.054688 54.398438 C 371.382812 54.214844 370.710938 54.121094 370.039062 54.121094 C 369.367188 54.121094 368.695312 54.230469 368.023438 54.457031 C 367.390625 54.679688 366.792969 55.070312 366.230469 55.632812 C 365.710938 56.152344 365.28125 56.863281 364.945312 57.757812 C 364.609375 58.617188 364.441406 59.71875 364.441406 61.0625 L 364.441406 76.738281 L 357.5 76.738281 L 357.5 48.746094 L 364.441406 48.746094 L 364.441406 51.097656 C 365.335938 50.238281 366.398438 49.511719 367.632812 48.914062 C 368.863281 48.316406 370.226562 48.015625 371.71875 48.015625 C 372.726562 48.015625 373.863281 48.183594 375.132812 48.519531 C 376.441406 48.820312 377.652344 49.417969 378.773438 50.3125 C 379.929688 51.207031 380.902344 52.441406 381.683594 54.007812 C 382.46875 55.539062 382.859375 57.535156 382.859375 60 Z M 382.859375 76.738281 " fill-opacity="1" fill-rule="nonzero"/><path fill="#ffffff" d="M 400.578125 37.546875 L 408.136719 37.546875 L 415.46875 65.148438 L 423.53125 37.546875 L 431.144531 37.546875 L 439.207031 65.148438 L 446.542969 37.546875 L 454.101562 37.546875 L 443.296875 76.738281 L 435.402344 76.738281 L 427.339844 50.03125 L 419.277344 76.738281 L 411.382812 76.738281 Z M 400.578125 37.546875 " fill-opacity="1" fill-rule="nonzero"/><path fill="#ffffff" d="M 468.726562 48.015625 C 470.816406 48.015625 472.722656 48.410156 474.4375 49.191406 C 476.15625 49.941406 477.628906 50.984375 478.859375 52.328125 C 480.09375 53.671875 481.042969 55.238281 481.714844 57.03125 C 482.425781 58.824219 482.78125 60.746094 482.78125 62.796875 C 482.78125 63.695312 482.707031 64.515625 482.554688 65.261719 L 460.890625 65.261719 C 461.375 67.164062 462.34375 68.695312 463.800781 69.851562 C 465.292969 70.972656 467.121094 71.53125 469.289062 71.53125 C 470.667969 71.53125 471.976562 71.25 473.207031 70.691406 C 474.476562 70.09375 475.425781 69.3125 476.0625 68.339844 L 481.378906 71.476562 C 480.074219 73.378906 478.394531 74.855469 476.339844 75.898438 C 474.289062 76.945312 471.898438 77.464844 469.175781 77.464844 C 466.898438 77.464844 464.808594 77.09375 462.90625 76.347656 C 461.039062 75.601562 459.433594 74.574219 458.089844 73.265625 C 456.785156 71.921875 455.757812 70.355469 455.011719 68.5625 C 454.300781 66.773438 453.949219 64.832031 453.949219 62.742188 C 453.949219 60.652344 454.300781 58.710938 455.011719 56.917969 C 455.757812 55.128906 456.765625 53.578125 458.035156 52.273438 C 459.339844 50.964844 460.90625 49.941406 462.738281 49.191406 C 464.566406 48.410156 466.5625 48.015625 468.726562 48.015625 Z M 476.230469 59.832031 C 475.96875 58 475.148438 56.582031 473.765625 55.574219 C 472.386719 54.566406 470.667969 54.0625 468.617188 54.0625 C 467.535156 54.0625 466.527344 54.230469 465.59375 54.566406 C 464.660156 54.867188 463.839844 55.277344 463.128906 55.800781 C 462.417969 56.320312 461.859375 56.9375 461.449219 57.648438 C 461.039062 58.320312 460.816406 59.046875 460.777344 59.832031 Z M 476.230469 59.832031 " fill-opacity="1" fill-rule="nonzero"/><path fill="#ffffff" d="M 485.273438 37.546875 L 492.214844 37.546875 L 492.214844 51.824219 C 493.183594 50.703125 494.34375 49.789062 495.6875 49.082031 C 497.03125 48.371094 498.597656 48.015625 500.390625 48.015625 C 502.554688 48.015625 504.496094 48.390625 506.210938 49.136719 C 507.964844 49.882812 509.441406 50.929688 510.632812 52.273438 C 511.867188 53.578125 512.800781 55.144531 513.433594 56.976562 C 514.105469 58.765625 514.441406 60.707031 514.441406 62.796875 C 514.441406 64.886719 514.105469 66.828125 513.433594 68.621094 C 512.800781 70.410156 511.867188 71.980469 510.632812 73.324219 C 509.441406 74.628906 507.964844 75.65625 506.210938 76.402344 C 504.496094 77.148438 502.554688 77.523438 500.390625 77.523438 C 498.597656 77.523438 497.03125 77.167969 495.6875 76.457031 C 494.34375 75.75 493.183594 74.835938 492.214844 73.714844 L 492.214844 76.738281 L 485.273438 76.738281 Z M 500.222656 71.027344 C 501.339844 71.027344 502.347656 70.820312 503.242188 70.410156 C 504.175781 69.964844 504.960938 69.367188 505.597656 68.621094 C 506.265625 67.875 506.769531 66.996094 507.105469 65.988281 C 507.480469 64.980469 507.667969 63.917969 507.667969 62.796875 C 507.667969 61.679688 507.480469 60.632812 507.105469 59.664062 C 506.769531 58.65625 506.265625 57.777344 505.597656 57.03125 C 504.960938 56.246094 504.175781 55.648438 503.242188 55.238281 C 502.347656 54.792969 501.339844 54.566406 500.222656 54.566406 C 499.0625 54.566406 498 54.773438 497.03125 55.183594 C 496.097656 55.59375 495.277344 56.171875 494.566406 56.917969 C 493.859375 57.628906 493.296875 58.488281 492.886719 59.496094 C 492.511719 60.464844 492.328125 61.546875 492.328125 62.742188 C 492.328125 63.9375 492.511719 65.035156 492.886719 66.042969 C 493.296875 67.050781 493.859375 67.929688 494.566406 68.675781 C 495.277344 69.421875 496.097656 70 497.03125 70.410156 C 498 70.820312 499.0625 71.027344 500.222656 71.027344 Z M 500.222656 71.027344 " fill-opacity="1" fill-rule="nonzero"/><path fill="#ffffff" d="M 549.203125 77.464844 C 544.835938 77.464844 541.234375 76.589844 538.398438 74.835938 C 535.601562 73.082031 533.640625 70.785156 532.519531 67.949219 L 539.574219 64.308594 C 540.359375 66.210938 541.535156 67.6875 543.101562 68.730469 C 544.707031 69.777344 546.796875 70.300781 549.371094 70.300781 C 550.566406 70.300781 551.613281 70.152344 552.507812 69.851562 C 553.441406 69.554688 554.222656 69.179688 554.859375 68.730469 C 555.492188 68.285156 555.980469 67.78125 556.3125 67.21875 C 556.648438 66.625 556.820312 66.042969 556.820312 65.484375 C 556.820312 64.738281 556.613281 64.121094 556.203125 63.636719 C 555.828125 63.113281 555.25 62.648438 554.46875 62.238281 C 553.683594 61.828125 552.695312 61.453125 551.5 61.117188 C 550.304688 60.746094 548.90625 60.335938 547.300781 59.886719 C 545.621094 59.4375 543.996094 58.914062 542.429688 58.320312 C 540.898438 57.722656 539.519531 56.976562 538.285156 56.078125 C 537.09375 55.183594 536.121094 54.101562 535.375 52.832031 C 534.667969 51.5625 534.3125 50.03125 534.3125 48.242188 C 534.3125 46.449219 534.683594 44.84375 535.433594 43.425781 C 536.214844 42.007812 537.242188 40.8125 538.511719 39.84375 C 539.78125 38.875 541.253906 38.125 542.933594 37.605469 C 544.652344 37.082031 546.421875 36.820312 548.253906 36.820312 C 551.761719 36.820312 554.785156 37.585938 557.324219 39.117188 C 559.898438 40.644531 561.875 42.753906 563.257812 45.441406 L 556.089844 49.023438 C 554.523438 45.703125 551.910156 44.042969 548.253906 44.042969 C 546.3125 44.042969 544.761719 44.492188 543.605469 45.386719 C 542.484375 46.246094 541.925781 47.234375 541.925781 48.351562 C 541.925781 49.101562 542.09375 49.714844 542.429688 50.199219 C 542.765625 50.648438 543.269531 51.058594 543.941406 51.433594 C 544.652344 51.804688 545.546875 52.160156 546.628906 52.496094 C 547.75 52.792969 549.054688 53.167969 550.546875 53.617188 C 552.265625 54.101562 553.945312 54.640625 555.585938 55.238281 C 557.265625 55.835938 558.757812 56.601562 560.066406 57.535156 C 561.410156 58.429688 562.472656 59.53125 563.257812 60.839844 C 564.078125 62.144531 564.488281 63.769531 564.488281 65.707031 C 564.488281 67.5 564.097656 69.125 563.3125 70.578125 C 562.527344 72.035156 561.445312 73.265625 560.066406 74.273438 C 558.722656 75.28125 557.117188 76.066406 555.25 76.625 C 553.382812 77.1875 551.371094 77.464844 549.203125 77.464844 Z M 549.203125 77.464844 " fill-opacity="1" fill-rule="nonzero"/><path fill="#ffffff" d="M 581.957031 48.015625 C 584.046875 48.015625 585.953125 48.410156 587.667969 49.191406 C 589.386719 49.941406 590.859375 50.984375 592.089844 52.328125 C 593.324219 53.671875 594.273438 55.238281 594.949219 57.03125 C 595.65625 58.824219 596.011719 60.746094 596.011719 62.796875 C 596.011719 63.695312 595.9375 64.515625 595.785156 65.261719 L 574.121094 65.261719 C 574.605469 67.164062 575.578125 68.695312 577.03125 69.851562 C 578.523438 70.972656 580.351562 71.53125 582.519531 71.53125 C 583.898438 71.53125 585.207031 71.25 586.4375 70.691406 C 587.707031 70.09375 588.660156 69.3125 589.292969 68.339844 L 594.609375 71.476562 C 593.304688 73.378906 591.625 74.855469 589.574219 75.898438 C 587.519531 76.945312 585.132812 77.464844 582.40625 77.464844 C 580.128906 77.464844 578.039062 77.09375 576.136719 76.347656 C 574.269531 75.601562 572.664062 74.574219 571.320312 73.265625 C 570.015625 71.921875 568.988281 70.355469 568.242188 68.5625 C 567.53125 66.773438 567.179688 64.832031 567.179688 62.742188 C 567.179688 60.652344 567.53125 58.710938 568.242188 56.917969 C 568.988281 55.128906 569.996094 53.578125 571.265625 52.273438 C 572.570312 50.964844 574.140625 49.941406 575.96875 49.191406 C 577.796875 48.410156 579.792969 48.015625 581.957031 48.015625 Z M 589.460938 59.832031 C 589.199219 58 588.378906 56.582031 586.996094 55.574219 C 585.617188 54.566406 583.898438 54.0625 581.847656 54.0625 C 580.765625 54.0625 579.757812 54.230469 578.824219 54.566406 C 577.890625 54.867188 577.070312 55.277344 576.359375 55.800781 C 575.652344 56.320312 575.089844 56.9375 574.679688 57.648438 C 574.269531 58.320312 574.046875 59.046875 574.007812 59.832031 Z M 589.460938 59.832031 " fill-opacity="1" fill-rule="nonzero"/><path fill="#ffffff" d="M 615.882812 55.351562 C 615.507812 55.238281 615.097656 55.183594 614.652344 55.183594 C 612.410156 55.183594 610.527344 55.816406 608.996094 57.085938 C 607.464844 58.320312 606.699219 60.109375 606.699219 62.460938 L 606.699219 76.738281 L 599.757812 76.738281 L 599.757812 48.746094 L 606.699219 48.746094 L 606.699219 53.785156 C 607.296875 52.476562 608.324219 51.320312 609.78125 50.3125 C 611.273438 49.269531 613.175781 48.746094 615.492188 48.746094 L 616.386719 48.746094 Z M 615.882812 55.351562 " fill-opacity="1" fill-rule="nonzero"/><path fill="#ffffff" d="M 618.515625 48.746094 L 625.847656 48.746094 L 633.183594 68.339844 L 640.515625 48.746094 L 647.851562 48.746094 L 637.4375 76.738281 L 628.929688 76.738281 Z M 618.515625 48.746094 " fill-opacity="1" fill-rule="nonzero"/><path fill="#ffffff" d="M 655.328125 42.25 C 654.320312 42.25 653.441406 41.894531 652.695312 41.1875 C 651.949219 40.476562 651.578125 39.601562 651.578125 38.554688 C 651.578125 37.511719 651.949219 36.632812 652.695312 35.925781 C 653.441406 35.179688 654.320312 34.804688 655.328125 34.804688 C 656.335938 34.804688 657.195312 35.179688 657.902344 35.925781 C 658.648438 36.632812 659.023438 37.511719 659.023438 38.554688 C 659.023438 39.601562 658.648438 40.476562 657.902344 41.1875 C 657.195312 41.894531 656.335938 42.25 655.328125 42.25 Z M 651.800781 48.746094 L 658.6875 48.746094 L 658.6875 76.738281 L 651.800781 76.738281 Z M 651.800781 48.746094 " fill-opacity="1" fill-rule="nonzero"/><path fill="#ffffff" d="M 689.949219 71.308594 C 688.605469 73.210938 686.886719 74.722656 684.796875 75.84375 C 682.707031 76.960938 680.429688 77.523438 677.96875 77.523438 C 675.914062 77.523438 673.992188 77.148438 672.199219 76.402344 C 670.410156 75.617188 668.839844 74.554688 667.5 73.210938 C 666.152344 71.867188 665.089844 70.300781 664.308594 68.507812 C 663.5625 66.714844 663.1875 64.8125 663.1875 62.796875 C 663.1875 60.78125 663.5625 58.878906 664.308594 57.085938 C 665.089844 55.296875 666.152344 53.726562 667.5 52.382812 C 668.839844 51.039062 670.410156 49.996094 672.199219 49.25 C 673.992188 48.464844 675.914062 48.074219 677.96875 48.074219 C 680.429688 48.074219 682.6875 48.632812 684.742188 49.753906 C 686.832031 50.835938 688.546875 52.308594 689.894531 54.175781 L 684.125 58.039062 C 683.304688 57.070312 682.371094 56.320312 681.328125 55.800781 C 680.28125 55.238281 679.160156 54.960938 677.96875 54.960938 C 676.886719 54.960938 675.859375 55.164062 674.886719 55.574219 C 673.953125 55.984375 673.132812 56.546875 672.425781 57.253906 C 671.714844 57.964844 671.15625 58.804688 670.746094 59.773438 C 670.335938 60.707031 670.128906 61.714844 670.128906 62.796875 C 670.128906 63.878906 670.335938 64.90625 670.746094 65.875 C 671.15625 66.808594 671.714844 67.632812 672.425781 68.339844 C 673.132812 69.011719 673.953125 69.554688 674.886719 69.964844 C 675.859375 70.375 676.886719 70.578125 677.96875 70.578125 C 679.238281 70.578125 680.394531 70.300781 681.4375 69.738281 C 682.484375 69.179688 683.378906 68.433594 684.125 67.5 Z M 689.949219 71.308594 " fill-opacity="1" fill-rule="nonzero"/><path fill="#ffffff" d="M 706.875 48.015625 C 708.964844 48.015625 710.871094 48.410156 712.585938 49.191406 C 714.304688 49.941406 715.777344 50.984375 717.007812 52.328125 C 718.242188 53.671875 719.191406 55.238281 719.867188 57.03125 C 720.574219 58.824219 720.929688 60.746094 720.929688 62.796875 C 720.929688 63.695312 720.855469 64.515625 720.703125 65.261719 L 699.039062 65.261719 C 699.523438 67.164062 700.496094 68.695312 701.949219 69.851562 C 703.441406 70.972656 705.273438 71.53125 707.4375 71.53125 C 708.816406 71.53125 710.125 71.25 711.355469 70.691406 C 712.625 70.09375 713.578125 69.3125 714.210938 68.339844 L 719.53125 71.476562 C 718.222656 73.378906 716.542969 74.855469 714.492188 75.898438 C 712.4375 76.945312 710.050781 77.464844 707.324219 77.464844 C 705.046875 77.464844 702.957031 77.09375 701.054688 76.347656 C 699.1875 75.601562 697.582031 74.574219 696.238281 73.265625 C 694.933594 71.921875 693.90625 70.355469 693.160156 68.5625 C 692.453125 66.773438 692.097656 64.832031 692.097656 62.742188 C 692.097656 60.652344 692.453125 58.710938 693.160156 56.917969 C 693.90625 55.128906 694.914062 53.578125 696.183594 52.273438 C 697.488281 50.964844 699.058594 49.941406 700.886719 49.191406 C 702.714844 48.410156 704.710938 48.015625 706.875 48.015625 Z M 714.378906 59.832031 C 714.117188 58 713.296875 56.582031 711.914062 55.574219 C 710.535156 54.566406 708.816406 54.0625 706.765625 54.0625 C 705.683594 54.0625 704.675781 54.230469 703.742188 54.566406 C 702.808594 54.867188 701.988281 55.277344 701.277344 55.800781 C 700.570312 56.320312 700.007812 56.9375 699.597656 57.648438 C 699.1875 58.320312 698.964844 59.046875 698.925781 59.832031 Z M 714.378906 59.832031 " fill-opacity="1" fill-rule="nonzero"/><path fill="#ffffff" d="M 731.578125 56.582031 C 731.578125 57.328125 731.96875 57.890625 732.753906 58.261719 C 733.574219 58.636719 734.582031 58.972656 735.777344 59.269531 C 737.007812 59.53125 738.3125 59.832031 739.695312 60.167969 C 741.113281 60.464844 742.417969 60.949219 743.613281 61.621094 C 744.847656 62.257812 745.851562 63.132812 746.636719 64.253906 C 747.457031 65.335938 747.871094 66.792969 747.871094 68.621094 C 747.871094 70.039062 747.535156 71.308594 746.859375 72.425781 C 746.226562 73.507812 745.347656 74.425781 744.230469 75.171875 C 743.109375 75.917969 741.824219 76.476562 740.367188 76.851562 C 738.910156 77.261719 737.382812 77.464844 735.777344 77.464844 C 732.828125 77.464844 730.308594 76.90625 728.21875 75.785156 C 726.128906 74.667969 724.578125 73.0625 723.570312 70.972656 L 729.28125 68.003906 C 729.804688 69.386719 730.625 70.375 731.746094 70.972656 C 732.863281 71.570312 734.207031 71.867188 735.777344 71.867188 C 736.449219 71.867188 737.101562 71.8125 737.734375 71.699219 C 738.371094 71.550781 738.929688 71.34375 739.414062 71.082031 C 739.9375 70.820312 740.347656 70.484375 740.648438 70.074219 C 740.984375 69.664062 741.152344 69.179688 741.152344 68.621094 C 741.152344 67.800781 740.738281 67.183594 739.917969 66.773438 C 739.097656 66.324219 738.070312 65.953125 736.839844 65.652344 C 735.644531 65.316406 734.320312 65 732.863281 64.699219 C 731.445312 64.363281 730.121094 63.898438 728.890625 63.300781 C 727.695312 62.667969 726.6875 61.847656 725.867188 60.839844 C 725.046875 59.832031 724.636719 58.488281 724.636719 56.808594 C 724.636719 55.425781 724.933594 54.195312 725.53125 53.113281 C 726.128906 52.03125 726.929688 51.117188 727.9375 50.367188 C 728.984375 49.585938 730.175781 49.007812 731.519531 48.632812 C 732.902344 48.222656 734.339844 48.015625 735.832031 48.015625 C 738.257812 48.015625 740.421875 48.519531 742.328125 49.527344 C 744.265625 50.5 745.777344 51.9375 746.859375 53.839844 L 741.207031 56.695312 C 740.722656 55.6875 740.050781 54.921875 739.191406 54.398438 C 738.332031 53.839844 737.214844 53.558594 735.832031 53.558594 C 734.527344 53.558594 733.480469 53.839844 732.695312 54.398438 C 731.949219 54.921875 731.578125 55.648438 731.578125 56.582031 Z M 731.578125 56.582031 " fill-opacity="1" fill-rule="nonzero"/></svg>