<svg width="28" height="28" viewBox="0 0 28 28" fill="none" xmlns="http://www.w3.org/2000/svg">
<path fill-rule="evenodd" clip-rule="evenodd" d="M6.58203 13.9997C6.58203 11.0366 6.58203 9.5551 7.2881 8.488C7.6034 8.01149 8.01149 7.6034 8.488 7.2881C9.5551 6.58203 11.0366 6.58203 13.9997 6.58203C16.9627 6.58203 18.4443 6.58203 19.5114 7.2881C19.9879 7.6034 20.396 8.01149 20.7113 8.488C21.4173 9.5551 21.4173 11.0366 21.4173 13.9997V13.9997V13.9997C21.4173 16.9627 21.4173 18.4443 20.7113 19.5114C20.396 19.9879 19.9879 20.396 19.5114 20.7113C18.4443 21.4173 16.9627 21.4173 13.9997 21.4173C11.0366 21.4173 9.5551 21.4173 8.488 20.7113C8.01149 20.396 7.6034 19.9879 7.2881 19.5114C6.58203 18.4443 6.58203 16.9627 6.58203 13.9997ZM17.8399 13.9994C17.8399 16.1203 16.1206 17.8396 13.9997 17.8396C11.8788 17.8396 10.1595 16.1203 10.1595 13.9994C10.1595 11.8785 11.8788 10.1592 13.9997 10.1592C16.1206 10.1592 17.8399 11.8785 17.8399 13.9994ZM13.9997 16.5404C15.403 16.5404 16.5407 15.4028 16.5407 13.9994C16.5407 12.5961 15.403 11.4585 13.9997 11.4585C12.5964 11.4585 11.4587 12.5961 11.4587 13.9994C11.4587 15.4028 12.5964 16.5404 13.9997 16.5404ZM17.9914 10.8686C18.4898 10.8686 18.8938 10.4646 18.8938 9.96627C18.8938 9.46792 18.4898 9.06393 17.9914 9.06393C17.4931 9.06393 17.0891 9.46792 17.0891 9.96627C17.0891 10.4646 17.4931 10.8686 17.9914 10.8686Z" fill="white"/>
</svg>
