<svg width="28" height="28" viewBox="0 0 28 28" fill="none" xmlns="http://www.w3.org/2000/svg">
<path d="M14.403 20.4073L10.6739 20.3376C9.46653 20.3133 8.25612 20.3617 7.07239 20.1101C5.27167 19.7342 5.1441 17.8909 5.01061 16.3448C4.82667 14.1711 4.89788 11.958 5.24499 9.80243C5.44094 8.59295 6.21209 7.87124 7.40465 7.79271C11.4304 7.50769 15.483 7.54147 19.4998 7.67444C19.924 7.68663 20.3512 7.75325 20.7695 7.82909C22.8344 8.19897 22.8847 10.2878 23.0186 12.0462C23.1521 13.8227 23.0957 15.6084 22.8406 17.3728C22.6359 18.8337 22.2442 20.0589 20.5915 20.1771C18.5207 20.3318 16.4974 20.4563 14.4208 20.4166C14.4209 20.4073 14.409 20.4073 14.403 20.4073ZM12.2107 16.7086C13.7712 15.793 15.3019 14.8926 16.8535 13.9832C15.2901 13.0675 13.7623 12.1672 12.2107 11.2577V16.7086Z" fill="white"/>
</svg>
